<svg xmlns="http://www.w3.org/2000/svg" xmlns:xlink="http://www.w3.org/1999/xlink" viewBox="0 0 300 288.28"><defs><style>.cls-1{isolation:isolate;}.cls-2{fill:url(#linear-gradient);}.cls-3{fill:url(#linear-gradient-2);}.cls-4{fill:url(#linear-gradient-3);}.cls-5{fill:url(#linear-gradient-4);}.cls-6{fill:url(#linear-gradient-5);}.cls-7{fill:url(#linear-gradient-6);}.cls-8{fill:url(#linear-gradient-7);}.cls-9{fill:#86baa1;opacity:0.3;mix-blend-mode:multiply;}</style><linearGradient id="linear-gradient" x1="285.17" y1="22.01" x2="-2.66" y2="271.26" gradientUnits="userSpaceOnUse"><stop offset="0" stop-color="#3ab795"/><stop offset="0.49" stop-color="#a0e8af"/><stop offset="1" stop-color="#86baa1"/></linearGradient><linearGradient id="linear-gradient-2" x1="337.98" y1="82.99" x2="50.15" y2="332.25" xlink:href="#linear-gradient"/><linearGradient id="linear-gradient-3" x1="57.82" y1="106.95" x2="-27.93" y2="181.21" xlink:href="#linear-gradient"/><linearGradient id="linear-gradient-4" x1="280.03" y1="171.33" x2="104.04" y2="323.73" xlink:href="#linear-gradient"/><linearGradient id="linear-gradient-5" x1="232.97" y1="8.05" x2="150.5" y2="79.48" xlink:href="#linear-gradient"/><linearGradient id="linear-gradient-6" x1="140.78" y1="-15.58" x2="-9.22" y2="114.31" xlink:href="#linear-gradient"/><linearGradient id="linear-gradient-7" x1="140.78" y1="176.57" x2="-9.22" y2="306.46" xlink:href="#linear-gradient"/></defs><g class="cls-1"><g id="Layer_2" data-name="Layer 2"><g id="Layer_1-2" data-name="Layer 1"><circle class="cls-2" cx="144.14" cy="144.14" r="61.65"/><circle class="cls-3" cx="267.87" cy="143.7" r="32.13"/><path class="cls-4" d="M36.05,187.12a116,116,0,0,1,0-86A61.85,61.85,0,0,1,14.89,80.44a143.7,143.7,0,0,0,0,127.4A61.88,61.88,0,0,1,36.05,187.12Z"/><path class="cls-5" d="M267.87,205.35a61.26,61.26,0,0,1-22.36-4.2A116.24,116.24,0,0,1,126,259.06a61.66,61.66,0,0,1-15.58,25.19A143.95,143.95,0,0,0,274.77,205,62.7,62.7,0,0,1,267.87,205.35Z"/><path class="cls-6" d="M126,29.21A116.33,116.33,0,0,1,245.1,86.42a61.35,61.35,0,0,1,22.77-4.36,60.65,60.65,0,0,1,6.49.34A144,144,0,0,0,110.39,4,61.7,61.7,0,0,1,126,29.21Z"/><circle class="cls-7" cx="67.28" cy="48.07" r="32.13"/><circle class="cls-8" cx="67.28" cy="240.21" r="32.13"/><path class="cls-9" d="M.37,154a143,143,0,0,0,14.52,53.84,61.88,61.88,0,0,1,21.16-20.72,115.67,115.67,0,0,1-8.26-43c0-1,0-1.92.07-2.88A187,187,0,0,0,.37,154Z"/><path class="cls-9" d="M144.14,205.79a61.58,61.58,0,0,0,55.11-34.14,103.22,103.22,0,0,1-55.11-18.24c-20.45-13.88-41-19.87-60.5-21a61.57,61.57,0,0,0,60.5,73.41Z"/><path class="cls-9" d="M267.87,175.83a32,32,0,0,0,31.26-39.45c-14.73,10.37-33.91,21.57-55.34,28.54A32,32,0,0,0,267.87,175.83Z"/><path class="cls-9" d="M267.87,205.35a61.26,61.26,0,0,1-22.36-4.2A116.24,116.24,0,0,1,126,259.06a61.66,61.66,0,0,1-15.58,25.19A143.95,143.95,0,0,0,274.77,205,62.7,62.7,0,0,1,267.87,205.35Z"/><circle class="cls-9" cx="67.28" cy="240.21" r="32.13"/></g></g></g></svg>