<svg xmlns="http://www.w3.org/2000/svg" xmlns:xlink="http://www.w3.org/1999/xlink" viewBox="0 0 345.66 60.01"><defs><style>.cls-1{isolation:isolate;}.cls-2{fill:#fff;}.cls-3{fill:url(#linear-gradient);}.cls-4{fill:url(#linear-gradient-2);}.cls-5{fill:url(#linear-gradient-3);}.cls-6{fill:url(#linear-gradient-4);}.cls-7{fill:url(#linear-gradient-5);}.cls-8{fill:url(#linear-gradient-6);}.cls-9{fill:url(#linear-gradient-7);}.cls-10{fill:#86baa1;opacity:0.3;mix-blend-mode:multiply;}</style><linearGradient id="linear-gradient" x1="59.37" y1="4.58" x2="-0.55" y2="56.47" gradientUnits="userSpaceOnUse"><stop offset="0" stop-color="#3ab795"/><stop offset="0.49" stop-color="#a0e8af"/><stop offset="1" stop-color="#86baa1"/></linearGradient><linearGradient id="linear-gradient-2" x1="70.36" y1="17.28" x2="10.44" y2="69.17" xlink:href="#linear-gradient"/><linearGradient id="linear-gradient-3" x1="12.04" y1="22.27" x2="-5.81" y2="37.72" xlink:href="#linear-gradient"/><linearGradient id="linear-gradient-4" x1="58.3" y1="35.67" x2="21.66" y2="67.39" xlink:href="#linear-gradient"/><linearGradient id="linear-gradient-5" x1="48.5" y1="1.68" x2="31.33" y2="16.54" xlink:href="#linear-gradient"/><linearGradient id="linear-gradient-6" x1="29.31" y1="-3.24" x2="-1.92" y2="23.8" xlink:href="#linear-gradient"/><linearGradient id="linear-gradient-7" x1="29.31" y1="36.76" x2="-1.92" y2="63.8" xlink:href="#linear-gradient"/></defs><g class="cls-1"><g id="Layer_2" data-name="Layer 2"><g id="Layer_1-2" data-name="Layer 1"><path class="cls-2" d="M78.94,30a21.79,21.79,0,0,1,1.61-8.48A19.9,19.9,0,0,1,91.64,10.59a22.38,22.38,0,0,1,19.06,1.32,18.39,18.39,0,0,1,7.48,8.3l-5.63,2A12.42,12.42,0,0,0,109.06,18a14.76,14.76,0,0,0-4.46-2.29A15.89,15.89,0,0,0,99.88,15a13.85,13.85,0,0,0-7.1,1.85,12.85,12.85,0,0,0-5,5.22A16.66,16.66,0,0,0,86,30a16.52,16.52,0,0,0,1.79,7.89,13.12,13.12,0,0,0,5,5.25A13.67,13.67,0,0,0,99.88,45a16.36,16.36,0,0,0,4.87-.76,13.58,13.58,0,0,0,4.63-2.55,14.51,14.51,0,0,0,3.7-4.9l5.63,1.76A19.57,19.57,0,0,1,111,48a22.43,22.43,0,0,1-19.33,1.46A19.81,19.81,0,0,1,85,45.08a20.3,20.3,0,0,1-4.46-6.66A21.58,21.58,0,0,1,78.94,30Z"/><path class="cls-2" d="M125.81,9.48h6.92V26.84H152V9.48h7V50.54h-7V32.65h-19.3V50.54h-6.92Z"/><path class="cls-2" d="M195.73,15.28H174.61V26.9h15.78v5.75H174.61V44.73h21.12v5.81h-28V9.48h28Z"/><path class="cls-2" d="M210.1,50.54h-6.92V9.48h7.74l13.84,31.91L238.61,9.48h7.74V50.54h-7V22.79l-12,27.75h-5.33l-12-27.75Z"/><path class="cls-2" d="M255,9.48H262V50.54H255Z"/><path class="cls-2" d="M288.41,15.28h-2.17L273.86,50.54h-7.1L281.37,9.48h11.79l14.61,41.06h-7.16ZM274.74,34.76h23.93v5.75H274.74Z"/><path class="cls-2" d="M345.66,9.48V50.54H338.5l-19.06-30.1v30.1h-6.92V9.48h7.09l19.07,30v-30Z"/><circle class="cls-3" cx="30.01" cy="30.01" r="12.83"/><circle class="cls-4" cx="55.76" cy="29.92" r="6.69"/><path class="cls-5" d="M7.5,39a24.12,24.12,0,0,1,0-17.89,12.9,12.9,0,0,1-4.4-4.32,29.93,29.93,0,0,0,0,26.53A13,13,0,0,1,7.5,39Z"/><path class="cls-6" d="M55.76,42.75a12.61,12.61,0,0,1-4.65-.88A24.23,24.23,0,0,1,30,54.23a25,25,0,0,1-3.79-.3A12.77,12.77,0,0,1,23,59.17,29.67,29.67,0,0,0,30,60,30,30,0,0,0,57.2,42.67,13.59,13.59,0,0,1,55.76,42.75Z"/><path class="cls-7" d="M26.22,6.08A25,25,0,0,1,30,5.78,24.24,24.24,0,0,1,51,18a12.9,12.9,0,0,1,4.74-.91c.46,0,.91,0,1.35.07A30,30,0,0,0,23,.84,12.77,12.77,0,0,1,26.22,6.08Z"/><circle class="cls-8" cx="14.01" cy="10.01" r="6.69"/><circle class="cls-9" cx="14.01" cy="50.01" r="6.69"/><path class="cls-10" d="M.08,32.06a29.8,29.8,0,0,0,3,11.21A13,13,0,0,1,7.5,39,24.15,24.15,0,0,1,5.78,30c0-.2,0-.4,0-.6A38.64,38.64,0,0,0,.08,32.06Z"/><path class="cls-10" d="M30,42.84a12.83,12.83,0,0,0,11.47-7.11A21.5,21.5,0,0,1,30,31.94a24.71,24.71,0,0,0-12.6-4.38A13.13,13.13,0,0,0,17.17,30,12.84,12.84,0,0,0,30,42.84Z"/><path class="cls-10" d="M55.76,36.6a6.68,6.68,0,0,0,6.69-6.68,6.41,6.41,0,0,0-.18-1.53,44.12,44.12,0,0,1-11.52,5.94A6.68,6.68,0,0,0,55.76,36.6Z"/><path class="cls-10" d="M55.76,42.75a12.61,12.61,0,0,1-4.65-.88A24.23,24.23,0,0,1,30,54.23a25,25,0,0,1-3.79-.3A12.77,12.77,0,0,1,23,59.17,29.67,29.67,0,0,0,30,60,30,30,0,0,0,57.2,42.67,13.59,13.59,0,0,1,55.76,42.75Z"/><circle class="cls-10" cx="14.01" cy="50.01" r="6.69"/></g></g></g></svg>