<svg xmlns="http://www.w3.org/2000/svg" viewBox="0 0 489.67 470.54"><defs><style>.cls-1{opacity:0.1;}.cls-2{fill:#d8f1ea;}</style></defs><g id="Layer_2" data-name="Layer 2"><g id="Layer_1-2" data-name="Layer 1"><g class="cls-1"><path class="cls-2" d="M238.57,335.84l.85,0q1.4,0,2.79-.15l.52,0c1.1-.08,2.2-.18,3.29-.3l.54-.06c1-.11,1.95-.23,2.91-.37l.48-.06q3.44-.51,6.79-1.24l.1,0a100.67,100.67,0,1,0-21.57,2.33C236.37,335.9,237.47,335.87,238.57,335.84Z"/><path class="cls-2" d="M235.27,45.35c70.44,0,132,38.59,164.79,95.7a100.45,100.45,0,0,1,37.17-7.12,102.64,102.64,0,0,1,10.58.56C410,55.05,329,0,235.27,0a234.84,234.84,0,0,0-55.09,6.58,100.63,100.63,0,0,1,25.43,41.1A190.85,190.85,0,0,1,235.27,45.35Z"/><circle class="cls-2" cx="109.82" cy="78.45" r="52.44"/><path class="cls-2" d="M45.35,235.27c0-1.58.08-3.13.12-4.7l-.06,0a188.92,188.92,0,0,1,13.43-65.48A101,101,0,0,1,24.3,131.29,234.57,234.57,0,0,0,13.05,312.41l.42,1.2c.44,1.25.9,2.49,1.36,3.72.28.75.56,1.5.85,2.25.4,1.05.81,2.09,1.23,3.13s.77,1.9,1.17,2.85.74,1.77,1.12,2.65c.5,1.17,1,2.32,1.54,3.48.31.68.61,1.37.93,2.05.85,1.85,1.72,3.68,2.63,5.5a101,101,0,0,1,34.54-33.81A188.81,188.81,0,0,1,45.35,235.27Z"/><path class="cls-2" d="M489.67,234.53c0-1,0-2-.09-3v0a52.44,52.44,0,1,0-69.16,52.77l.07,0c.8.27,1.61.52,2.42.75l.37.11c.72.19,1.45.38,2.19.55l.58.13c.67.15,1.35.28,2,.39l.75.14c.64.1,1.29.19,1.94.27l.85.11c.66.07,1.32.11,2,.16l.82.06c.92.05,1.84.08,2.77.08h.05a52.44,52.44,0,0,0,52.44-52.44Z"/><path class="cls-2" d="M400.73,328.33c-32.62,57.75-94.54,96.85-165.46,96.85a189.63,189.63,0,0,1-29.66-2.33A100.67,100.67,0,0,1,180.18,464a234.84,234.84,0,0,0,55.09,6.58c94.26,0,175.71-55.76,213.22-136a99.9,99.9,0,0,1-47.76-6.21Z"/><circle class="cls-2" cx="109.82" cy="392.08" r="52.44"/></g></g></g></svg>